<svg width="26" height="26" viewBox="0 0 26 26" fill="none" xmlns="http://www.w3.org/2000/svg">
<path fill-rule="evenodd" clip-rule="evenodd" d="M13 0C5.82533 0 0 5.82533 0 13C0 20.1747 5.82533 26 13 26C20.1747 26 26 20.1747 26 13C26 5.82533 20.1747 0 13 0ZM13 2C19.0707 2 24 6.92933 24 13C24 19.0707 19.0707 24 13 24C6.92933 24 2 19.0707 2 13C2 6.92933 6.92933 2 13 2Z" fill="#7A7474"/>
<path fill-rule="evenodd" clip-rule="evenodd" d="M10.667 15.3334H14.3337C15.483 15.3334 16.5857 14.8774 17.3977 14.0641C18.211 13.2521 18.667 12.1494 18.667 11.0001C18.667 9.85075 18.211 8.74808 17.3977 7.93608C16.5857 7.12275 15.483 6.66675 14.3337 6.66675C12.1377 6.66675 9.66699 6.66675 9.66699 6.66675C9.11499 6.66675 8.66699 7.11475 8.66699 7.66675V18.3334C8.66699 18.8854 9.11499 19.3334 9.66699 19.3334C10.219 19.3334 10.667 18.8854 10.667 18.3334V15.3334ZM10.667 13.3334H14.3337C14.9523 13.3334 15.5457 13.0881 15.983 12.6494C16.4217 12.2121 16.667 11.6187 16.667 11.0001C16.667 10.3814 16.4217 9.78808 15.983 9.35075C15.5457 8.91208 14.9523 8.66675 14.3337 8.66675H10.667V13.3334Z" fill="#7A7474"/>
</svg>
