<svg width="25" height="25" viewBox="0 0 25 25" fill="none" xmlns="http://www.w3.org/2000/svg">
<path d="M18.5202 2.5H6.14683C5.13601 2.50176 4.1671 2.90409 3.45234 3.61885C2.73759 4.3336 2.33526 5.30252 2.3335 6.31333V18.6867C2.33526 19.6975 2.73759 20.6664 3.45234 21.3812C4.1671 22.0959 5.13601 22.4982 6.14683 22.5H18.5202C19.531 22.4982 20.4999 22.0959 21.2146 21.3812C21.9294 20.6664 22.3317 19.6975 22.3335 18.6867V6.31333C22.3317 5.30252 21.9294 4.3336 21.2146 3.61885C20.4999 2.90409 19.531 2.50176 18.5202 2.5ZM21.0002 18.6867C20.9984 19.3439 20.7366 19.9736 20.2718 20.4383C19.8071 20.9031 19.1774 21.1649 18.5202 21.1667H6.14683C5.48963 21.1649 4.85986 20.9031 4.39515 20.4383C3.93044 19.9736 3.66859 19.3439 3.66683 18.6867V6.31333C3.66859 5.65614 3.93044 5.02636 4.39515 4.56165C4.85986 4.09694 5.48963 3.83509 6.14683 3.83333H18.5202C19.1774 3.83509 19.8071 4.09694 20.2718 4.56165C20.7366 5.02636 20.9984 5.65614 21.0002 6.31333V18.6867Z" fill="#100E2C"/>
<path d="M18.9328 13.8492C18.7384 13.8492 18.5518 13.9264 18.4143 14.064C18.2768 14.2015 18.1995 14.388 18.1995 14.5825V17.3325L7.50018 6.63317H10.2502C10.4447 6.63317 10.6312 6.55591 10.7687 6.41838C10.9062 6.28086 10.9835 6.09433 10.9835 5.89984C10.9835 5.70535 10.9062 5.51882 10.7687 5.38129C10.6312 5.24377 10.4447 5.1665 10.2502 5.1665H5.50551C5.37131 5.1665 5.24261 5.21981 5.14772 5.31471C5.05282 5.4096 4.99951 5.5383 4.99951 5.6725V10.4172C4.99951 10.6117 5.07677 10.7982 5.2143 10.9357C5.35183 11.0732 5.53835 11.1505 5.73285 11.1505C5.92734 11.1505 6.11386 11.0732 6.25139 10.9357C6.38892 10.7982 6.46618 10.6117 6.46618 10.4172V7.66717L17.1655 18.3665H14.4155C14.221 18.3665 14.0345 18.4438 13.897 18.5813C13.7594 18.7188 13.6822 18.9053 13.6822 19.0998C13.6822 19.2943 13.7594 19.4809 13.897 19.6184C14.0345 19.7559 14.221 19.8332 14.4155 19.8332H19.1602C19.2944 19.8332 19.4231 19.7799 19.518 19.685C19.6129 19.5901 19.6662 19.4614 19.6662 19.3272V14.5825C19.6662 14.388 19.5889 14.2015 19.4514 14.064C19.3139 13.9264 19.1273 13.8492 18.9328 13.8492Z" fill="#100E2C"/>
</svg>
