<svg width="25" height="25" viewBox="0 0 25 25" fill="none" xmlns="http://www.w3.org/2000/svg">
<g clip-path="url(#clip0_2468_171)">
<path d="M23.9634 13.2975H23.054H6.28494V5.39796C6.28494 4.35672 7.13202 3.50964 8.17321 3.50964C8.99661 3.50964 9.69819 4.03961 9.95582 4.77625C8.66966 5.01039 7.69114 6.13811 7.69114 7.49088V8.17277C7.69114 8.56108 8.00596 8.87589 8.39427 8.87589H13.1349C13.5232 8.87589 13.8381 8.56108 13.8381 8.17277V7.49088C13.8381 6.07914 12.7725 4.91233 11.4035 4.75071C11.1019 3.24297 9.76827 2.10339 8.17321 2.10339C6.35661 2.10339 4.87869 3.58132 4.87869 5.39796V13.2975H2.279H1.36963C0.981316 13.2975 0.666504 13.6123 0.666504 14.0006C0.666504 14.389 0.981316 14.7038 1.36963 14.7038H1.70947L2.36793 17.8066C2.60793 18.9378 3.23497 19.9615 4.13347 20.6894C4.18771 20.7333 4.24283 20.7759 4.29871 20.8174L3.71329 21.8454C3.5211 22.1828 3.63885 22.6121 3.9763 22.8043C4.08613 22.8669 4.20566 22.8966 4.3236 22.8966C4.56805 22.8966 4.80561 22.7688 4.93522 22.5413L5.53377 21.4903C6.10166 21.7045 6.70714 21.8181 7.31994 21.8181H18.0131C18.6259 21.8181 19.2313 21.7045 19.7992 21.4903L20.3978 22.5413C20.5274 22.7689 20.765 22.8966 21.0094 22.8966C21.1274 22.8966 21.2469 22.8668 21.3567 22.8043C21.6942 22.6121 21.8119 22.1828 21.6197 21.8454L21.0343 20.8174C21.0902 20.7759 21.1453 20.7333 21.1995 20.6894C22.098 19.9615 22.7251 18.9378 22.9651 17.8066L23.6235 14.7038H23.9634C24.3517 14.7038 24.6665 14.389 24.6665 14.0006C24.6665 13.6123 24.3517 13.2975 23.9634 13.2975ZM12.4316 7.4696H9.09758C9.10897 6.73291 9.71179 6.13708 10.4511 6.13708H11.0781C11.8174 6.13708 12.4202 6.73291 12.4316 7.4696ZM21.5895 17.5147C21.2332 19.1935 19.7291 20.4119 18.013 20.4119H7.31994C5.60385 20.4119 4.09972 19.1935 3.74347 17.5147L3.14699 14.7038H22.1859L21.5895 17.5147Z" fill="#100E2C"/>
<path d="M12.1333 9.86035C12.1327 9.86035 12.1322 9.86035 12.1316 9.86035C11.7433 9.86129 11.4293 10.1768 11.4302 10.5652L11.4329 11.7199C11.4339 12.1076 11.7485 12.4214 12.136 12.4214H12.1378C12.5261 12.4204 12.8401 12.1049 12.8392 11.7166L12.8364 10.5618C12.8355 10.174 12.5209 9.86035 12.1333 9.86035Z" fill="#100E2C"/>
<path d="M9.39579 9.86035C9.00827 9.86035 8.69365 10.174 8.69271 10.5618L8.68994 11.7166C8.68901 12.1049 9.00307 12.4205 9.39138 12.4214H9.39311C9.78063 12.4214 10.0953 12.1077 10.0962 11.7199L10.099 10.5652C10.0999 10.1768 9.78583 9.86124 9.39752 9.86035C9.39696 9.86035 9.3964 9.86035 9.39579 9.86035Z" fill="#100E2C"/>
</g>
<defs>
<clipPath id="clip0_2468_171">
<rect width="24" height="24" fill="white" transform="translate(0.666504 0.5)"/>
</clipPath>
</defs>
</svg>
