<svg width="30" height="21" viewBox="0 0 30 21" fill="none" xmlns="http://www.w3.org/2000/svg">
<path d="M27.6458 7.36925C20.9331 1.00773 10.5977 0.672908 3.50455 6.36588C3.1111 6.68169 2.72747 7.01613 2.35486 7.36925C1.95399 7.74912 1.32106 7.73219 0.941153 7.33129C0.56126 6.93043 0.57826 6.29748 0.979127 5.91759C1.39158 5.52671 1.81653 5.15621 2.25263 4.80616C10.1191 -1.50747 21.577 -1.1374 29.0215 5.91759C29.4223 6.29748 29.4394 6.93041 29.0595 7.33128C28.6797 7.73219 28.0466 7.74912 27.6458 7.36925Z" fill="#7A7474"/>
<path d="M4.95989 10.4921C10.5051 4.94697 19.4955 4.94697 25.0407 10.4921C25.4313 10.8826 25.4313 11.5158 25.0407 11.9064C24.6502 12.2969 24.0171 12.2969 23.6266 11.9064C18.8625 7.14224 11.1382 7.14224 6.37411 11.9064C5.98357 12.2969 5.35041 12.2969 4.95989 11.9064C4.56936 11.5158 4.56936 10.8826 4.95989 10.4921Z" fill="#7A7474"/>
<path d="M8.95989 14.8353C12.2959 11.4993 17.7047 11.4993 21.0407 14.8353C21.4313 15.2258 21.4313 15.859 21.0407 16.2495C20.6502 16.6401 20.0171 16.6401 19.6266 16.2495C17.0715 13.6945 12.9291 13.6945 10.3741 16.2495C9.98357 16.6401 9.35041 16.6401 8.95989 16.2495C8.56936 15.859 8.56936 15.2258 8.95989 14.8353Z" fill="#7A7474"/>
<path d="M15.0007 20.6666C15.9211 20.6666 16.6673 19.9203 16.6673 18.9999C16.6673 18.0794 15.9211 17.3333 15.0007 17.3333C14.0801 17.3333 13.334 18.0794 13.334 18.9999C13.334 19.9203 14.0801 20.6666 15.0007 20.6666Z" fill="#7A7474"/>
</svg>
